# xmcd
#
# Track frame offsets:
#  183
#  13295
#  26095
#  37183
#  47183
#  59370
#  71708
#  83170
#  95008
#  105970
#  117945
#  127493
#  138965
#  151963
#  163533
#  175148
#  185990
#  196730
#  210465
#  220718
#  233015
#  244935
#  258335
#  270833
#
# Disc length: 3829 seconds
#
# Revision: 0
# Processed by: cddbd v1.4PL0 Copyright (c) Steve Scherf et al.
# Submitted via: AlterCode_WhopSee 2.7
#
DISCID=5b0ef318
DTITLE=Laura Lee - Irma Thomas - Muscle Shoals Soul
DYEAR=1900
DGENRE=
TTITLE0=Dirty Man - LL
TTITLE1=Uptight, Good Man - LL
TTITLE2=Need To Belong - LL
TTITLE3=As Long As I Got You  - LL
TTITLE4=She Will Break Your Heart - LL
TTITLE5=It's All Wrong But It's All Right - LL
TTITLE6=It's How You Make It Good - LL
TTITLE7=A Man With Some Backbone - LL
TTITLE8=Wanted: Lover, No Experience Necessary - LL
TTITLE9=Hang It Up - LL
TTITLE10=It Ain't What You Do (But How You Do It) - LL
TTITLE11=Cheater Man - IT
TTITLE12=A Woman Will Do Wrong - IT
TTITLE13=Good To Me - IT
TTITLE14=We Got Something Good - IT
TTITLE15=Let's Do It Over - IT
TTITLE16=I Gave You Everything - IT
TTITLE17=I've Been Loving You Too Long /IT
TTITLE18=Security /IT
TTITLE19=Somewhere Crying - IT
TTITLE20=Don't Make Me Stop Now - IT
TTITLE21=Good Things Don't Come Easy - IT
TTITLE22=Here I Am, Take Me - IT
TTITLE23=Yours Until Tomorrow - IT
EXTD=
EXTT0=
EXTT1=
EXTT2=
EXTT3=
EXTT4=
EXTT5=
EXTT6=
EXTT7=
EXTT8=
EXTT9=
EXTT10=
EXTT11=
EXTT12=
EXTT13=
EXTT14=
EXTT15=
EXTT16=
EXTT17=
EXTT18=
EXTT19=
EXTT20=
EXTT21=
EXTT22=
EXTT23=
PLAYORDER=
